# xmcd
# 
# Track frame offsets:
#     150
#     21185
#     36390
#     69122
#     96296
#     118788
#     148903
# 
# Disc length: 2183
# 
# Revision: 0
# Processed by: cddbd v1.5.2PL0 Copyright (c) Steve Scherf et al.
# Submitted via: BonkEnc v1.0
# 
DISCID=61088507
DTITLE=Crebain - Night Of The Stormcrow
DYEAR=0
DGENRE=
TTITLE0=Night Of the Stormcrow
TTITLE1=I Live To Kill
TTITLE2=Darkness Be My Bride
TTITLE3=By Our Talons Heaven Shall Fall
TTITLE4=Time To Die
TTITLE5=Cries Of My Motherland
TTITLE6=Winds Of Fury
EXTD=
EXTT0=
EXTT1=
EXTT2=
EXTT3=
EXTT4=
EXTT5=
EXTT6=
PLAYORDER=
